<svg width="128" height="28" viewBox="0 0 128 28" fill="none" xmlns="http://www.w3.org/2000/svg">
<path d="M40.42 21V6.9H43.52V12.56H50.08V6.9H53.18V21H50.08V15.14H43.52V21H40.42ZM59.0855 21.22C58.3655 21.22 57.7188 21.08 57.1455 20.8C56.5721 20.52 56.1255 20.14 55.8055 19.66C55.4855 19.18 55.3255 18.64 55.3255 18.04C55.3255 17.32 55.5121 16.7533 55.8855 16.34C56.2588 15.9133 56.8655 15.6133 57.7055 15.44C58.5455 15.2533 59.6588 15.16 61.0455 15.16H62.1055V16.72H61.0655C60.5455 16.72 60.1055 16.74 59.7455 16.78C59.3988 16.82 59.1121 16.8933 58.8855 17C58.6588 17.0933 58.4921 17.2133 58.3855 17.36C58.2921 17.5067 58.2455 17.6933 58.2455 17.92C58.2455 18.2933 58.3721 18.6 58.6255 18.84C58.8921 19.08 59.2721 19.2 59.7655 19.2C60.1521 19.2 60.4921 19.1133 60.7855 18.94C61.0921 18.7533 61.3321 18.5067 61.5055 18.2C61.6788 17.88 61.7655 17.52 61.7655 17.12V14.82C61.7655 14.2333 61.6321 13.82 61.3655 13.58C61.0988 13.3267 60.6455 13.2 60.0055 13.2C59.4721 13.2 58.9055 13.2867 58.3055 13.46C57.7188 13.62 57.1321 13.8667 56.5455 14.2L55.7255 12.18C56.0721 11.94 56.4921 11.7333 56.9855 11.56C57.4921 11.3733 58.0188 11.2333 58.5655 11.14C59.1121 11.0333 59.6321 10.98 60.1255 10.98C61.1521 10.98 61.9921 11.1333 62.6455 11.44C63.3121 11.7333 63.8121 12.1933 64.1455 12.82C64.4788 13.4333 64.6455 14.2267 64.6455 15.2V21H61.8255V19.02H61.9655C61.8855 19.4733 61.7121 19.8667 61.4455 20.2C61.1921 20.52 60.8655 20.7733 60.4655 20.96C60.0655 21.1333 59.6055 21.22 59.0855 21.22ZM66.8983 21V11.18H69.8583V13.58H69.6583C69.8183 12.78 70.1649 12.1667 70.6983 11.74C71.2449 11.3 71.9649 11.0467 72.8583 10.98L73.7383 10.92L73.9183 13.46L72.2183 13.64C71.4583 13.7067 70.8916 13.9267 70.5183 14.3C70.1583 14.6733 69.9783 15.2133 69.9783 15.92V21H66.8983ZM75.1805 21V11.18H78.1405V13.02H77.9205C78.0938 12.6067 78.3338 12.2467 78.6405 11.94C78.9471 11.6333 79.3138 11.4 79.7405 11.24C80.1671 11.0667 80.6338 10.98 81.1405 10.98C81.9005 10.98 82.5338 11.16 83.0405 11.52C83.5471 11.88 83.9071 12.4333 84.1205 13.18H83.8405C84.1338 12.5 84.5805 11.9667 85.1805 11.58C85.7938 11.18 86.4938 10.98 87.2805 10.98C88.0405 10.98 88.6605 11.1333 89.1405 11.44C89.6338 11.7333 90.0005 12.1867 90.2405 12.8C90.4805 13.4 90.6005 14.1667 90.6005 15.1V21H87.5805V15.2C87.5805 14.5467 87.4738 14.0733 87.2605 13.78C87.0605 13.4733 86.7138 13.32 86.2205 13.32C85.8471 13.32 85.5205 13.4133 85.2405 13.6C84.9605 13.7733 84.7471 14.0333 84.6005 14.38C84.4671 14.7133 84.4005 15.1267 84.4005 15.62V21H81.3805V15.2C81.3805 14.5467 81.2738 14.0733 81.0605 13.78C80.8605 13.4733 80.5138 13.32 80.0205 13.32C79.6338 13.32 79.3071 13.4133 79.0405 13.6C78.7738 13.7733 78.5671 14.0333 78.4205 14.38C78.2738 14.7133 78.2005 15.1267 78.2005 15.62V21H75.1805ZM97.6339 21.22C96.5806 21.22 95.6606 21.0133 94.8739 20.6C94.1006 20.1867 93.5006 19.5933 93.0739 18.82C92.6472 18.0467 92.4339 17.1333 92.4339 16.08C92.4339 15.0267 92.6472 14.12 93.0739 13.36C93.5006 12.6 94.1006 12.0133 94.8739 11.6C95.6606 11.1867 96.5806 10.98 97.6339 10.98C98.6872 10.98 99.6006 11.1867 100.374 11.6C101.161 12.0133 101.767 12.6067 102.194 13.38C102.634 14.14 102.854 15.04 102.854 16.08C102.854 17.1333 102.634 18.0467 102.194 18.82C101.767 19.5933 101.161 20.1867 100.374 20.6C99.6006 21.0133 98.6872 21.22 97.6339 21.22ZM97.6339 18.96C98.2872 18.96 98.8139 18.7267 99.2139 18.26C99.6139 17.78 99.8139 17.0533 99.8139 16.08C99.8139 15.1067 99.6139 14.3933 99.2139 13.94C98.8139 13.4733 98.2872 13.24 97.6339 13.24C96.9939 13.24 96.4739 13.4733 96.0739 13.94C95.6739 14.3933 95.4739 15.1067 95.4739 16.08C95.4739 17.0533 95.6739 17.78 96.0739 18.26C96.4739 18.7267 96.9939 18.96 97.6339 18.96ZM104.691 21V11.18H107.651V13.02H107.431C107.738 12.3667 108.191 11.8667 108.791 11.52C109.405 11.16 110.098 10.98 110.871 10.98C111.658 10.98 112.305 11.1333 112.811 11.44C113.318 11.7333 113.698 12.1867 113.951 12.8C114.205 13.4 114.331 14.1667 114.331 15.1V21H111.311V15.24C111.311 14.7867 111.251 14.42 111.131 14.14C111.025 13.8467 110.858 13.64 110.631 13.52C110.418 13.3867 110.145 13.32 109.811 13.32C109.385 13.32 109.011 13.4133 108.691 13.6C108.385 13.7733 108.145 14.0267 107.971 14.36C107.798 14.6933 107.711 15.08 107.711 15.52V21H104.691ZM116.586 21V11.18H119.546V13.02H119.326C119.632 12.3667 120.086 11.8667 120.686 11.52C121.299 11.16 121.992 10.98 122.766 10.98C123.552 10.98 124.199 11.1333 124.706 11.44C125.212 11.7333 125.592 12.1867 125.846 12.8C126.099 13.4 126.226 14.1667 126.226 15.1V21H123.206V15.24C123.206 14.7867 123.146 14.42 123.026 14.14C122.919 13.8467 122.752 13.64 122.526 13.52C122.312 13.3867 122.039 13.32 121.706 13.32C121.279 13.32 120.906 13.4133 120.586 13.6C120.279 13.7733 120.039 14.0267 119.866 14.36C119.692 14.6933 119.606 15.08 119.606 15.52V21H116.586Z" fill="#1C2735"/>
<path d="M17.0258 27.5287C16.6996 27.5287 16.4129 27.4176 16.1658 27.1954C15.9187 26.9749 15.7952 26.6843 15.7952 26.3234C15.7952 26.1509 15.8329 25.9598 15.9085 25.75C15.9841 25.5403 16.0969 25.3603 16.2472 25.21L21.1578 20.3007L20.4218 19.5647L15.5192 24.474C15.3681 24.6251 15.1978 24.738 15.0085 24.8127C14.8192 24.8883 14.6267 24.926 14.4312 24.926C14.0881 24.926 13.7969 24.8065 13.5578 24.5674C13.3187 24.3283 13.1996 24.0376 13.2005 23.6954C13.2005 23.49 13.2423 23.2896 13.3258 23.094C13.4103 22.8985 13.5165 22.7363 13.6445 22.6074L18.5552 17.698L17.8258 16.9687L12.9165 21.8727C12.7832 22.006 12.6174 22.1149 12.4192 22.1994C12.2209 22.2838 12.0218 22.3256 11.8218 22.3247C11.4832 22.3247 11.1934 22.2043 10.9525 21.9634C10.7116 21.7225 10.5912 21.4327 10.5912 21.094C10.5912 20.8985 10.6285 20.706 10.7032 20.5167C10.7778 20.3274 10.8907 20.1571 11.0418 20.006L15.6445 15.4034L14.9085 14.6754L10.3138 19.278C10.1858 19.406 10.0227 19.5123 9.8245 19.5967C9.62539 19.6803 9.42361 19.722 9.21917 19.722C8.85828 19.722 8.56272 19.6069 8.3325 19.3767C8.10317 19.1474 7.9885 18.8523 7.9885 18.4914C7.9885 18.2958 8.02584 18.1034 8.1005 17.914C8.17606 17.7247 8.28895 17.5545 8.43917 17.4034L15.0258 10.8167L17.8978 13.6967C18.1423 13.9411 18.4183 14.114 18.7258 14.2154C19.0343 14.3176 19.3463 14.3687 19.6618 14.3687C20.3045 14.3687 20.8414 14.1571 21.2725 13.734C21.7036 13.3109 21.9192 12.77 21.9192 12.1114C21.9192 11.8003 21.8592 11.4865 21.7392 11.17C21.6192 10.8545 21.4321 10.5691 21.1778 10.314L17.6472 6.78337L18.9538 5.4767C19.2472 5.1887 19.6014 4.96337 20.0165 4.8007C20.4316 4.63715 20.8467 4.55537 21.2618 4.55537C21.7036 4.55537 22.1347 4.63715 22.5552 4.8007C22.9756 4.96337 23.3343 5.19359 23.6312 5.49137L29.3432 11.206C29.6232 11.4869 29.8449 11.8291 30.0085 12.2327C30.1721 12.6354 30.2538 13.082 30.2538 13.5727C30.2538 14.0171 30.1707 14.4371 30.0045 14.8327C29.8392 15.2283 29.6187 15.5638 29.3432 15.8394L18.1152 27.0754C17.9712 27.2194 17.8023 27.3305 17.6085 27.4087C17.4165 27.4878 17.2227 27.5274 17.0272 27.5274M6.90184 17.4754L5.52184 16.0954C5.14406 15.7229 4.85961 15.2754 4.6685 14.7527C4.47739 14.2291 4.38184 13.718 4.38184 13.2194C4.38184 12.6931 4.46717 12.2154 4.63784 11.786C4.8085 11.3567 5.02628 11.0096 5.29117 10.7447L10.5405 5.4887C10.8276 5.20159 11.1476 4.97359 11.5005 4.8047C11.8516 4.63581 12.2352 4.55137 12.6512 4.55137C13.0974 4.55137 13.5063 4.63092 13.8778 4.79004C14.2512 4.94826 14.5916 5.18115 14.8992 5.4887L20.4512 11.0394C20.5845 11.1727 20.6929 11.3385 20.7765 11.5367C20.8601 11.7349 20.9018 11.9229 20.9018 12.1007C20.9018 12.4563 20.7858 12.7549 20.5538 12.9967C20.3209 13.2367 20.0267 13.3567 19.6712 13.3567C19.4712 13.3567 19.2787 13.3207 19.0938 13.2487C18.9098 13.1758 18.7401 13.0616 18.5845 12.906L15.0192 9.35804L6.90184 17.4754Z" fill="#48CAE4"/>
<path d="M29.4993 15.6697C30.198 14.9725 30.7561 14.1481 31.1418 13.2437C31.5276 12.3392 31.7333 11.3724 31.7474 10.3984C31.7614 9.42434 31.5835 8.46221 31.2237 7.5669C30.8639 6.67159 30.3293 5.86063 29.6505 5.18034C28.9717 4.50005 28.1619 3.96374 27.2674 3.60204C26.3728 3.24033 25.4111 3.06031 24.437 3.07226C23.463 3.08421 22.4957 3.28788 21.5904 3.67167C20.6851 4.05545 19.8596 4.61182 19.1609 5.309L24.3301 10.4893L29.4993 15.6697Z" fill="#48CAE4"/>
<path d="M15.1018 5.7278C14.4444 5.04511 13.6628 4.49484 12.8018 4.1084C11.9407 3.72197 11.017 3.50694 10.0834 3.47559C9.1498 3.44425 8.22458 3.5972 7.36056 3.92571C6.49655 4.25422 5.71066 4.75187 5.04778 5.39023C4.3849 6.02859 3.85799 6.79516 3.49716 7.64619C3.13632 8.49721 2.94862 9.41601 2.94477 10.3501C2.94091 11.2843 3.12099 12.2154 3.4747 13.0904C3.82842 13.9654 4.34885 14.7672 5.00628 15.4499L10.0541 10.5888L15.1018 5.7278Z" fill="#48CAE4"/>
</svg>
