<svg width="397" height="89" viewBox="0 0 397 89" fill="none" xmlns="http://www.w3.org/2000/svg">
<path d="M125.555 66.1063V22.3079H135.185V39.8894H155.562V22.3079H165.191V66.1063H155.562V47.9036H135.185V66.1063H125.555ZM183.535 66.7897C181.299 66.7897 179.29 66.3548 177.509 65.485C175.728 64.6153 174.341 63.4349 173.347 61.9439C172.353 60.4529 171.856 58.7755 171.856 56.9117C171.856 54.6752 172.435 52.915 173.595 51.6311C174.755 50.3057 176.639 49.3739 179.248 48.8354C181.858 48.2556 185.316 47.9657 189.623 47.9657H192.916V52.8115H189.686C188.07 52.8115 186.704 52.8736 185.585 52.9978C184.508 53.1221 183.618 53.3499 182.914 53.6812C182.21 53.9711 181.692 54.3439 181.361 54.7995C181.071 55.2551 180.926 55.8349 180.926 56.539C180.926 57.6987 181.319 58.6513 182.106 59.3968C182.935 60.1423 184.115 60.515 185.647 60.515C186.848 60.515 187.905 60.2458 188.816 59.7074C189.768 59.1275 190.514 58.3613 191.052 57.4087C191.591 56.4147 191.86 55.2965 191.86 54.054V46.9096C191.86 45.0872 191.446 43.8033 190.617 43.0578C189.789 42.2709 188.381 41.8774 186.393 41.8774C184.736 41.8774 182.976 42.1466 181.112 42.685C179.29 43.182 177.468 43.9483 175.645 44.9837L173.098 38.709C174.175 37.9635 175.48 37.3216 177.012 36.7831C178.586 36.2033 180.222 35.7684 181.92 35.4785C183.618 35.1472 185.233 34.9815 186.766 34.9815C189.955 34.9815 192.564 35.4578 194.593 36.4104C196.664 37.3216 198.217 38.7504 199.253 40.697C200.288 42.6022 200.806 45.0665 200.806 48.0899V66.1063H192.046V59.9559H192.481C192.233 61.3641 191.694 62.5859 190.866 63.6213C190.079 64.6153 189.064 65.4022 187.822 65.982C186.579 66.5205 185.15 66.7897 183.535 66.7897ZM207.804 66.1063V35.6027H216.998V43.0578H216.377C216.874 40.5728 217.951 38.6676 219.608 37.3423C221.306 35.9755 223.542 35.1886 226.317 34.9815L229.051 34.7951L229.61 42.685L224.329 43.2442C221.968 43.4513 220.208 44.1346 219.048 45.2943C217.93 46.454 217.371 48.1314 217.371 50.3265V66.1063H207.804ZM233.53 66.1063V35.6027H242.725V41.3183H242.042C242.58 40.0344 243.326 38.9161 244.278 37.9635C245.231 37.0109 246.37 36.2861 247.695 35.7891C249.02 35.2507 250.47 34.9815 252.044 34.9815C254.405 34.9815 256.372 35.5406 257.946 36.6589C259.52 37.7771 260.638 39.4959 261.301 41.8153H260.431C261.342 39.703 262.729 38.0463 264.593 36.8453C266.498 35.6027 268.673 34.9815 271.116 34.9815C273.477 34.9815 275.403 35.4578 276.894 36.4104C278.426 37.3216 279.565 38.7297 280.311 40.6349C281.056 42.4987 281.429 44.8801 281.429 47.7793V66.1063H272.048V48.0899C272.048 46.0605 271.717 44.5902 271.054 43.679C270.433 42.7265 269.356 42.2502 267.824 42.2502C266.664 42.2502 265.649 42.5401 264.78 43.1199C263.91 43.6583 263.247 44.466 262.792 45.5428C262.377 46.5782 262.17 47.8621 262.17 49.3946V66.1063H252.789V48.0899C252.789 46.0605 252.458 44.5902 251.795 43.679C251.174 42.7265 250.097 42.2502 248.565 42.2502C247.364 42.2502 246.349 42.5401 245.521 43.1199C244.692 43.6583 244.05 44.466 243.595 45.5428C243.139 46.5782 242.911 47.8621 242.911 49.3946V66.1063H233.53ZM303.277 66.7897C300.005 66.7897 297.147 66.1477 294.704 64.8638C292.301 63.5799 290.438 61.7368 289.112 59.3346C287.787 56.9325 287.124 54.0954 287.124 50.8235C287.124 47.5515 287.787 44.7352 289.112 42.3744C290.438 40.0136 292.301 38.1913 294.704 36.9074C297.147 35.6235 300.005 34.9815 303.277 34.9815C306.549 34.9815 309.386 35.6235 311.788 36.9074C314.232 38.1913 316.116 40.0344 317.441 42.4365C318.808 44.7973 319.492 47.5929 319.492 50.8235C319.492 54.0954 318.808 56.9325 317.441 59.3346C316.116 61.7368 314.232 63.5799 311.788 64.8638C309.386 66.1477 306.549 66.7897 303.277 66.7897ZM303.277 59.7695C305.306 59.7695 306.942 59.0447 308.185 57.5951C309.427 56.1041 310.049 53.8469 310.049 50.8235C310.049 47.8 309.427 45.5842 308.185 44.176C306.942 42.7265 305.306 42.0017 303.277 42.0017C301.289 42.0017 299.674 42.7265 298.431 44.176C297.189 45.5842 296.567 47.8 296.567 50.8235C296.567 53.8469 297.189 56.1041 298.431 57.5951C299.674 59.0447 301.289 59.7695 303.277 59.7695ZM325.199 66.1063V35.6027H334.393V41.3183H333.71C334.663 39.2889 336.071 37.7357 337.935 36.6589C339.84 35.5406 341.993 34.9815 344.396 34.9815C346.839 34.9815 348.848 35.4578 350.422 36.4104C351.996 37.3216 353.176 38.7297 353.963 40.6349C354.75 42.4987 355.143 44.8801 355.143 47.7793V66.1063H345.762V48.2142C345.762 46.806 345.576 45.6671 345.203 44.7973C344.872 43.8861 344.354 43.2442 343.65 42.8714C342.987 42.4572 342.138 42.2502 341.103 42.2502C339.778 42.2502 338.618 42.5401 337.624 43.1199C336.671 43.6583 335.926 44.4453 335.387 45.4807C334.849 46.5161 334.58 47.7172 334.58 49.0839V66.1063H325.199ZM362.146 66.1063V35.6027H371.341V41.3183H370.658C371.61 39.2889 373.018 37.7357 374.882 36.6589C376.787 35.5406 378.941 34.9815 381.343 34.9815C383.787 34.9815 385.795 35.4578 387.369 36.4104C388.943 37.3216 390.124 38.7297 390.91 40.6349C391.697 42.4987 392.091 44.8801 392.091 47.7793V66.1063H382.71V48.2142C382.71 46.806 382.524 45.6671 382.151 44.7973C381.819 43.8861 381.302 43.2442 380.598 42.8714C379.935 42.4572 379.086 42.2502 378.051 42.2502C376.725 42.2502 375.566 42.5401 374.572 43.1199C373.619 43.6583 372.873 44.4453 372.335 45.4807C371.797 46.5161 371.527 47.7172 371.527 49.0839V66.1063H362.146Z" fill="#1C2735"/>
<path d="M52.8867 85.5115C51.8734 85.5115 50.9829 85.1664 50.2153 84.4761C49.4477 83.7914 49.0639 82.8885 49.0639 81.7675C49.0639 81.2318 49.1813 80.6382 49.416 79.9865C49.6507 79.3349 50.0013 78.7758 50.468 78.3091L65.7218 63.0594L63.4356 60.7732L48.2066 76.0229C47.7372 76.4923 47.2085 76.843 46.6203 77.0749C46.0322 77.3096 45.4344 77.427 44.827 77.427C43.7612 77.427 42.8569 77.0556 42.1142 76.3128C41.3714 75.5701 41.0015 74.6672 41.0042 73.6042C41.0042 72.9664 41.134 72.3437 41.3935 71.7363C41.6558 71.1288 41.9858 70.6249 42.3834 70.2246L57.6372 54.9749L55.3717 52.7094L40.122 67.9425C39.7079 68.3567 39.1929 68.6949 38.5772 68.9572C37.9615 69.2195 37.343 69.3493 36.7217 69.3465C35.6697 69.3465 34.7696 68.9724 34.0213 68.2241C33.2731 67.4759 32.8989 66.5757 32.8989 65.5238C32.8989 64.9163 33.0149 64.3185 33.2468 63.7304C33.4788 63.1423 33.8294 62.6135 34.2988 62.1441L48.5959 47.847L46.3097 45.5857L32.0375 59.8828C31.6399 60.2804 31.1332 60.6103 30.5175 60.8726C29.899 61.1322 29.2722 61.262 28.6371 61.262C27.5161 61.262 26.598 60.9044 25.8829 60.1893C25.1705 59.4769 24.8144 58.5602 24.8144 57.4392C24.8144 56.8317 24.9303 56.2339 25.1623 55.6458C25.3969 55.0577 25.7476 54.5289 26.2142 54.0596L46.6742 33.5996L55.5954 42.5457C56.3547 43.305 57.212 43.842 58.1674 44.1568C59.1255 44.4743 60.0946 44.6331 61.0748 44.6331C63.0711 44.6331 64.7388 43.9759 66.078 42.6616C67.4171 41.3473 68.0867 39.6672 68.0867 37.6212C68.0867 36.6548 67.9003 35.6801 67.5276 34.6972C67.1548 33.717 66.5736 32.8306 65.7839 32.0382L54.8167 21.071L58.8756 17.0121C59.7868 16.1175 60.8871 15.4176 62.1765 14.9123C63.466 14.4043 64.7554 14.1502 66.0449 14.1502C67.4171 14.1502 68.7563 14.4043 70.0623 14.9123C71.3683 15.4176 72.4824 16.1327 73.4046 17.0577L91.1476 34.809C92.0174 35.6815 92.7063 36.7445 93.2143 37.9981C93.7224 39.2489 93.9764 40.6363 93.9764 42.1605C93.9764 43.541 93.7182 44.8457 93.2019 46.0744C92.6883 47.3031 92.0036 48.3454 91.1476 49.2014L56.2705 84.1034C55.8232 84.5507 55.2986 84.8958 54.6966 85.1388C54.1002 85.3845 53.4983 85.5074 52.8909 85.5074M21.4389 54.2832L17.1522 49.9966C15.9787 48.8396 15.0952 47.4494 14.5015 45.8259C13.9079 44.1996 13.6111 42.6119 13.6111 41.0629C13.6111 39.4283 13.8762 37.9442 14.4063 36.6106C14.9364 35.277 15.6129 34.1988 16.4357 33.376L32.7415 17.0494C33.6334 16.1576 34.6274 15.4494 35.7236 14.9247C36.8142 14.4001 38.0056 14.1378 39.2978 14.1378C40.6839 14.1378 41.954 14.3849 43.1082 14.8792C44.2679 15.3707 45.3254 16.0941 46.2807 17.0494L63.5267 34.2913C63.9409 34.7054 64.2777 35.2204 64.5373 35.8361C64.7968 36.4519 64.9266 37.0358 64.9266 37.5881C64.9266 38.6925 64.5663 39.6202 63.8456 40.3713C63.1222 41.1168 62.2083 41.4895 61.1038 41.4895C60.4826 41.4895 59.8848 41.3777 59.3105 41.1541C58.7389 40.9276 58.2115 40.5728 57.7284 40.0896L46.6535 29.0686L21.4389 54.2832Z" fill="#48CAE4"/>
<path d="M91.6325 48.6742C93.8028 46.5085 95.5365 43.9479 96.7347 41.1384C97.9329 38.3289 98.572 35.3257 98.6157 32.3001C98.6593 29.2745 98.1066 26.2858 96.989 23.5048C95.8714 20.7237 94.2109 18.2047 92.1023 16.0915C89.9937 13.9783 87.4782 12.3124 84.6996 11.1889C81.9209 10.0653 78.9335 9.50611 75.9078 9.54322C72.8821 9.58033 69.8775 10.213 67.0654 11.4051C64.2534 12.5973 61.689 14.3255 59.5187 16.4911L75.5756 32.5827L91.6325 48.6742Z" fill="#48CAE4"/>
<path d="M46.9104 17.7921C44.8682 15.6715 42.4405 13.9622 39.7658 12.7618C37.0911 11.5615 34.2218 10.8935 31.3218 10.7962C28.4217 10.6988 25.5477 11.1739 22.8639 12.1943C20.18 13.2148 17.7388 14.7606 15.6798 16.7435C13.6207 18.7264 11.984 21.1076 10.8631 23.7511C9.74226 26.3946 9.1592 29.2487 9.14723 32.1503C9.13526 35.052 9.69461 37.9444 10.7933 40.6624C11.8921 43.3804 13.5087 45.8708 15.5509 47.9915L31.2306 32.8918L46.9104 17.7921Z" fill="#48CAE4"/>
</svg>
